<svg width="116" height="13" viewBox="0 0 116 13" fill="none" xmlns="http://www.w3.org/2000/svg">
<path d="M5.74525 12.048C4.94525 12.048 4.20392 11.904 3.52125 11.616C2.83858 11.328 2.24125 10.928 1.72925 10.416C1.21725 9.89333 0.81725 9.29067 0.52925 8.608C0.251917 7.92533 0.11325 7.18933 0.11325 6.4C0.11325 5.61067 0.25725 4.87467 0.54525 4.192C0.83325 3.50933 1.23325 2.912 1.74525 2.4C2.25725 1.87733 2.85458 1.472 3.53725 1.184C4.23058 0.896 4.97725 0.752 5.77725 0.752C6.57725 0.752 7.31858 0.896 8.00125 1.184C8.69458 1.46133 9.29192 1.856 9.79325 2.368C10.3053 2.88 10.6999 3.47733 10.9773 4.16C11.2653 4.832 11.4093 5.568 11.4093 6.368C11.4093 7.168 11.2653 7.91467 10.9773 8.608C10.6893 9.29067 10.2839 9.89333 9.76125 10.416C9.24925 10.928 8.65192 11.328 7.96925 11.616C7.28658 11.904 6.54525 12.048 5.74525 12.048ZM5.72925 11.456C6.45458 11.456 7.12125 11.328 7.72925 11.072C8.33725 10.8053 8.87058 10.4427 9.32925 9.984C9.79858 9.52533 10.1613 8.98667 10.4173 8.368C10.6733 7.73867 10.8013 7.072 10.8013 6.368C10.8013 5.65333 10.6733 4.992 10.4173 4.384C10.1719 3.776 9.81992 3.24267 9.36125 2.784C8.91325 2.32533 8.37992 1.97333 7.76125 1.728C7.15325 1.472 6.49192 1.344 5.77725 1.344C5.05192 1.344 4.37992 1.472 3.76125 1.728C3.14258 1.984 2.60392 2.34667 2.14525 2.816C1.69725 3.27467 1.34525 3.808 1.08925 4.416C0.83325 5.024 0.70525 5.68533 0.70525 6.4C0.70525 7.104 0.83325 7.76533 1.08925 8.384C1.34525 8.992 1.69725 9.53067 2.14525 10C2.60392 10.4587 3.13725 10.816 3.74525 11.072C4.36392 11.328 5.02525 11.456 5.72925 11.456ZM5.88925 9.728C5.24925 9.728 4.67858 9.58933 4.17725 9.312C3.67592 9.024 3.28125 8.62933 2.99325 8.128C2.70525 7.62667 2.56125 7.05067 2.56125 6.4C2.56125 5.74933 2.70525 5.17333 2.99325 4.672C3.28125 4.17067 3.67592 3.78133 4.17725 3.504C4.67858 3.216 5.24925 3.072 5.88925 3.072C6.43325 3.072 6.92392 3.184 7.36125 3.408C7.80925 3.62133 8.16658 3.92 8.43325 4.304L7.74525 4.816C7.52125 4.50667 7.24925 4.27733 6.92925 4.128C6.60925 3.97867 6.25725 3.904 5.87325 3.904C5.41458 3.904 5.00392 4.01067 4.64125 4.224C4.28925 4.42667 4.00658 4.71467 3.79325 5.088C3.57992 5.46133 3.47325 5.89867 3.47325 6.4C3.47325 6.90133 3.57992 7.33867 3.79325 7.712C4.00658 8.08533 4.28925 8.37867 4.64125 8.592C5.00392 8.79467 5.41458 8.896 5.87325 8.896C6.25725 8.896 6.60925 8.82133 6.92925 8.672C7.24925 8.52267 7.52125 8.29333 7.74525 7.984L8.43325 8.48C8.16658 8.87467 7.80925 9.184 7.36125 9.408C6.92392 9.62133 6.43325 9.728 5.88925 9.728ZM17.0303 12V11.184L21.6863 6.624C22.1129 6.208 22.4329 5.84533 22.6463 5.536C22.8596 5.216 23.0036 4.91733 23.0783 4.64C23.1529 4.36267 23.1903 4.10133 23.1903 3.856C23.1903 3.20533 22.9663 2.69333 22.5183 2.32C22.0809 1.94667 21.4303 1.76 20.5663 1.76C19.9049 1.76 19.3183 1.86133 18.8063 2.064C18.3049 2.26667 17.8729 2.58133 17.5103 3.008L16.6943 2.304C17.1316 1.792 17.6916 1.39733 18.3743 1.12C19.0569 0.842666 19.8196 0.704 20.6623 0.704C21.4196 0.704 22.0756 0.826666 22.6303 1.072C23.1849 1.30667 23.6116 1.65333 23.9103 2.112C24.2196 2.57067 24.3743 3.10933 24.3743 3.728C24.3743 4.09067 24.3209 4.448 24.2143 4.8C24.1183 5.152 23.9369 5.52533 23.6703 5.92C23.4143 6.304 23.0356 6.74133 22.5343 7.232L18.2623 11.424L17.9423 10.976H24.8863V12H17.0303ZM30.7648 12.096C29.9008 12.096 29.1328 11.872 28.4608 11.424C27.7888 10.9653 27.2608 10.3147 26.8768 9.472C26.4928 8.61867 26.3008 7.59467 26.3008 6.4C26.3008 5.20533 26.4928 4.18667 26.8768 3.344C27.2608 2.49067 27.7888 1.84 28.4608 1.392C29.1328 0.933333 29.9008 0.704 30.7648 0.704C31.6288 0.704 32.3968 0.933333 33.0688 1.392C33.7408 1.84 34.2688 2.49067 34.6528 3.344C35.0474 4.18667 35.2448 5.20533 35.2448 6.4C35.2448 7.59467 35.0474 8.61867 34.6528 9.472C34.2688 10.3147 33.7408 10.9653 33.0688 11.424C32.3968 11.872 31.6288 12.096 30.7648 12.096ZM30.7648 11.04C31.4261 11.04 32.0021 10.864 32.4928 10.512C32.9834 10.1493 33.3674 9.62667 33.6448 8.944C33.9221 8.25067 34.0608 7.40267 34.0608 6.4C34.0608 5.39733 33.9221 4.55467 33.6448 3.872C33.3674 3.17867 32.9834 2.656 32.4928 2.304C32.0021 1.94133 31.4261 1.76 30.7648 1.76C30.1248 1.76 29.5541 1.94133 29.0528 2.304C28.5514 2.656 28.1621 3.17867 27.8848 3.872C27.6074 4.55467 27.4688 5.39733 27.4688 6.4C27.4688 7.40267 27.6074 8.25067 27.8848 8.944C28.1621 9.62667 28.5514 10.1493 29.0528 10.512C29.5541 10.864 30.1248 11.04 30.7648 11.04ZM36.6865 12V11.184L41.3425 6.624C41.7692 6.208 42.0892 5.84533 42.3025 5.536C42.5158 5.216 42.6598 4.91733 42.7345 4.64C42.8092 4.36267 42.8465 4.10133 42.8465 3.856C42.8465 3.20533 42.6225 2.69333 42.1745 2.32C41.7372 1.94667 41.0865 1.76 40.2225 1.76C39.5612 1.76 38.9745 1.86133 38.4625 2.064C37.9612 2.26667 37.5292 2.58133 37.1665 3.008L36.3505 2.304C36.7878 1.792 37.3478 1.39733 38.0305 1.12C38.7132 0.842666 39.4758 0.704 40.3185 0.704C41.0758 0.704 41.7318 0.826666 42.2865 1.072C42.8412 1.30667 43.2678 1.65333 43.5665 2.112C43.8758 2.57067 44.0305 3.10933 44.0305 3.728C44.0305 4.09067 43.9772 4.448 43.8705 4.8C43.7745 5.152 43.5932 5.52533 43.3265 5.92C43.0705 6.304 42.6918 6.74133 42.1905 7.232L37.9185 11.424L37.5985 10.976H44.5425V12H36.6865ZM45.4369 9.056V8.224L51.3729 0.799999H52.6529L46.7649 8.224L46.1409 8.032H55.1489V9.056H45.4369ZM51.7569 12V9.056L51.7889 8.032V5.44H52.9089V12H51.7569ZM61.1465 12V3.6H62.2825V12H61.1465ZM61.7225 1.744C61.4878 1.744 61.2905 1.664 61.1305 1.504C60.9705 1.344 60.8905 1.152 60.8905 0.927999C60.8905 0.703999 60.9705 0.517332 61.1305 0.367999C61.2905 0.207999 61.4878 0.127999 61.7225 0.127999C61.9572 0.127999 62.1545 0.202666 62.3145 0.351999C62.4745 0.501333 62.5545 0.687999 62.5545 0.912C62.5545 1.14667 62.4745 1.344 62.3145 1.504C62.1652 1.664 61.9678 1.744 61.7225 1.744ZM75.9394 3.52C76.622 3.52 77.214 3.65333 77.7154 3.92C78.2274 4.176 78.622 4.57067 78.8994 5.104C79.1874 5.63733 79.3314 6.30933 79.3314 7.12V12H78.1954V7.232C78.1954 6.34667 77.982 5.68 77.5554 5.232C77.1394 4.77333 76.5474 4.544 75.7794 4.544C75.2034 4.544 74.702 4.66667 74.2754 4.912C73.8594 5.14667 73.534 5.49333 73.2994 5.952C73.0754 6.4 72.9634 6.944 72.9634 7.584V12H71.8274V7.232C71.8274 6.34667 71.614 5.68 71.1874 5.232C70.7607 4.77333 70.1634 4.544 69.3954 4.544C68.83 4.544 68.334 4.66667 67.9074 4.912C67.4807 5.14667 67.15 5.49333 66.9154 5.952C66.6914 6.4 66.5794 6.944 66.5794 7.584V12H65.4434V3.6H66.5314V5.872L66.3554 5.472C66.6114 4.864 67.022 4.38933 67.5874 4.048C68.1634 3.696 68.8407 3.52 69.6194 3.52C70.4407 3.52 71.1394 3.728 71.7154 4.144C72.2914 4.54933 72.6647 5.16267 72.8354 5.984L72.3874 5.808C72.6327 5.12533 73.0647 4.576 73.6834 4.16C74.3127 3.73333 75.0647 3.52 75.9394 3.52ZM82.4121 12V0.127999H83.5481V12H82.4121ZM91.973 12V10.144L91.925 9.84V6.736C91.925 6.02133 91.7223 5.472 91.317 5.088C90.9223 4.704 90.3303 4.512 89.541 4.512C88.997 4.512 88.4797 4.60267 87.989 4.784C87.4983 4.96533 87.0823 5.20533 86.741 5.504L86.229 4.656C86.6557 4.29333 87.1677 4.016 87.765 3.824C88.3623 3.62133 88.9917 3.52 89.653 3.52C90.741 3.52 91.5783 3.792 92.165 4.336C92.7623 4.86933 93.061 5.68533 93.061 6.784V12H91.973ZM89.077 12.08C88.4477 12.08 87.8983 11.9787 87.429 11.776C86.9703 11.5627 86.6183 11.2747 86.373 10.912C86.1277 10.5387 86.005 10.112 86.005 9.632C86.005 9.19467 86.1063 8.8 86.309 8.448C86.5223 8.08533 86.8637 7.79733 87.333 7.584C87.813 7.36 88.453 7.248 89.253 7.248H92.149V8.096H89.285C88.4743 8.096 87.909 8.24 87.589 8.528C87.2797 8.816 87.125 9.17333 87.125 9.6C87.125 10.08 87.3117 10.464 87.685 10.752C88.0583 11.04 88.581 11.184 89.253 11.184C89.893 11.184 90.4423 11.04 90.901 10.752C91.3703 10.4533 91.7117 10.0267 91.925 9.472L92.181 10.256C91.9677 10.8107 91.5943 11.2533 91.061 11.584C90.5383 11.9147 89.877 12.08 89.077 12.08ZM96.2585 12.08C96.0238 12.08 95.8212 11.9947 95.6505 11.824C95.4905 11.6533 95.4105 11.4453 95.4105 11.2C95.4105 10.944 95.4905 10.736 95.6505 10.576C95.8212 10.416 96.0238 10.336 96.2585 10.336C96.4932 10.336 96.6905 10.416 96.8505 10.576C97.0212 10.736 97.1065 10.944 97.1065 11.2C97.1065 11.4453 97.0212 11.6533 96.8505 11.824C96.6905 11.9947 96.4932 12.08 96.2585 12.08ZM104.957 12V10.144L104.909 9.84V6.736C104.909 6.02133 104.707 5.472 104.301 5.088C103.907 4.704 103.315 4.512 102.525 4.512C101.981 4.512 101.464 4.60267 100.973 4.784C100.483 4.96533 100.067 5.20533 99.7254 5.504L99.2134 4.656C99.64 4.29333 100.152 4.016 100.749 3.824C101.347 3.62133 101.976 3.52 102.637 3.52C103.725 3.52 104.563 3.792 105.149 4.336C105.747 4.86933 106.045 5.68533 106.045 6.784V12H104.957ZM102.061 12.08C101.432 12.08 100.883 11.9787 100.413 11.776C99.9547 11.5627 99.6027 11.2747 99.3574 10.912C99.112 10.5387 98.9894 10.112 98.9894 9.632C98.9894 9.19467 99.0907 8.8 99.2934 8.448C99.5067 8.08533 99.848 7.79733 100.317 7.584C100.797 7.36 101.437 7.248 102.237 7.248H105.133V8.096H102.269C101.459 8.096 100.893 8.24 100.573 8.528C100.264 8.816 100.109 9.17333 100.109 9.6C100.109 10.08 100.296 10.464 100.669 10.752C101.043 11.04 101.565 11.184 102.237 11.184C102.877 11.184 103.427 11.04 103.885 10.752C104.355 10.4533 104.696 10.0267 104.909 9.472L105.165 10.256C104.952 10.8107 104.579 11.2533 104.045 11.584C103.523 11.9147 102.861 12.08 102.061 12.08ZM108.219 12V11.248L113.819 4.16L114.059 4.544H108.315V3.6H114.955V4.336L109.371 11.44L109.083 11.056H115.067V12H108.219Z" fill="#A7AEC0"/>
</svg>
