<svg width="118" height="28" viewBox="0 0 118 28" fill="none" xmlns="http://www.w3.org/2000/svg">
<path d="M6.93332 22.3498C6.07776 22.3498 5.27776 22.2721 4.53332 22.1165C3.79998 21.9721 3.18332 21.7776 2.68332 21.5332C2.18332 21.2887 1.77221 21.0554 1.44998 20.8332C1.13887 20.6109 0.877761 20.3887 0.66665 20.1665L1.08332 16.1165C1.53887 16.7276 2.14998 17.2609 2.91665 17.7165C3.68332 18.1609 4.51109 18.3832 5.39998 18.3832C6.28887 18.3832 6.92776 18.2887 7.31665 18.0998C7.71665 17.9109 7.91665 17.5665 7.91665 17.0665C7.91665 16.5332 7.68887 16.0776 7.23332 15.6998C6.78887 15.3221 6.01665 14.8665 4.91665 14.3332C4.51665 14.1332 4.17776 13.9554 3.89998 13.7998C3.62221 13.6332 3.24998 13.3665 2.78332 12.9998C2.32776 12.6221 1.95554 12.2332 1.66665 11.8332C1.37776 11.4221 1.12221 10.8998 0.899984 10.2665C0.677761 9.62206 0.56665 8.93317 0.56665 8.19984C0.56665 4.23317 2.80554 2.24984 7.28332 2.24984C7.99443 2.24984 8.66109 2.32762 9.28332 2.48317C9.91665 2.62761 10.4111 2.78873 10.7667 2.9665C11.1222 3.14428 11.4444 3.35539 11.7333 3.59984C12.0333 3.83317 12.2222 3.99984 12.3 4.09984C12.3778 4.18873 12.4333 4.26095 12.4667 4.3165L11.6333 7.53317C11.2 7.02206 10.6555 6.64428 9.99998 6.39984C9.35554 6.14428 8.73887 6.0165 8.14998 6.0165C6.72776 6.0165 6.01665 6.46095 6.01665 7.34984C6.01665 7.58317 6.06109 7.79428 6.14998 7.98317C6.23887 8.17206 6.38332 8.34428 6.58332 8.49984C6.78332 8.65539 6.96665 8.78873 7.13332 8.89984C7.31109 9.01095 7.54998 9.14984 7.84998 9.3165C8.1611 9.47206 8.39443 9.59984 8.54998 9.69984C10.1722 10.3887 11.3611 11.2054 12.1167 12.1498C12.8833 13.0943 13.2667 14.2443 13.2667 15.5998C13.2667 17.7998 12.7222 19.4776 11.6333 20.6332C10.5555 21.7776 8.98887 22.3498 6.93332 22.3498Z" fill="#3A8FAF"/>
<path d="M23.7493 21.9998C23.1049 21.9998 22.516 21.9332 21.9827 21.7998C21.4493 21.6665 20.9827 21.4998 20.5827 21.2998V27.0332H15.216V11.2165L14.216 10.5998V8.8165L17.7993 7.83317H20.5827V8.94984C20.9827 8.53873 21.466 8.19428 22.0327 7.9165C22.5993 7.63873 23.2604 7.49984 24.016 7.49984C25.8493 7.49984 27.1938 8.12762 28.0493 9.38317C28.916 10.6387 29.3493 12.3776 29.3493 14.5998C29.3493 15.6443 29.2327 16.6109 28.9993 17.4998C28.766 18.3776 28.4216 19.1554 27.966 19.8332C27.5104 20.5109 26.9216 21.0443 26.1993 21.4332C25.4882 21.8109 24.6716 21.9998 23.7493 21.9998ZM21.2993 19.6832C22.7882 19.6832 23.5327 18.5443 23.5327 16.2665V13.4332C23.5327 12.4332 23.3604 11.6887 23.016 11.1998C22.6827 10.7109 22.2493 10.4665 21.716 10.4665C21.3493 10.4665 20.9716 10.5776 20.5827 10.7998V19.5998C20.716 19.6332 20.8382 19.6554 20.9493 19.6665C21.0716 19.6776 21.1882 19.6832 21.2993 19.6832Z" fill="#3A8FAF"/>
<path d="M38.7638 13.3832C38.7638 11.9721 38.6916 10.9721 38.5471 10.3832C38.4027 9.79428 38.136 9.49984 37.7471 9.49984C37.4138 9.49984 37.1416 9.56095 36.9305 9.68317C36.7193 9.79428 36.5638 9.97762 36.4638 10.2332C36.3638 10.4776 36.2971 10.7332 36.2638 10.9998C36.2416 11.2554 36.2305 11.5832 36.2305 11.9832V13.3832H38.7638ZM37.4305 22.3498C36.186 22.3498 35.1027 22.1609 34.1805 21.7832C33.2693 21.4054 32.5471 20.8776 32.0138 20.1998C31.4916 19.5221 31.1082 18.7609 30.8638 17.9165C30.6193 17.0609 30.4971 16.1109 30.4971 15.0665C30.4971 12.5776 31.1305 10.6943 32.3971 9.4165C33.6638 8.13873 35.436 7.49984 37.7138 7.49984C39.9027 7.49984 41.4693 8.0165 42.4138 9.04984C43.3582 10.0721 43.8305 11.7221 43.8305 13.9998V15.8498H36.2138V16.1665C36.2138 16.8221 36.2805 17.3609 36.4138 17.7832C36.5582 18.2054 36.7638 18.5165 37.0305 18.7165C37.2971 18.9165 37.5693 19.0498 37.8471 19.1165C38.1249 19.1832 38.4638 19.2165 38.8638 19.2165C39.2527 19.2165 39.6693 19.1665 40.1138 19.0665C40.5693 18.9665 41.0249 18.8109 41.4805 18.5998C41.9471 18.3887 42.336 18.1387 42.6471 17.8498L43.6305 19.5332C43.2193 20.1998 42.6138 20.7609 41.8138 21.2165C41.0249 21.6609 40.2638 21.9609 39.5305 22.1165C38.7971 22.2721 38.0971 22.3498 37.4305 22.3498Z" fill="#3A8FAF"/>
<path d="M45.4526 21.9998V3.14984L44.4526 2.54984V0.999838L49.8026 0.166504H50.8859V21.9998H45.4526Z" fill="#3A8FAF"/>
<path d="M52.9233 21.9998V3.14984L51.9233 2.54984V0.999838L57.2733 0.166504H58.3566V21.9998H52.9233Z" fill="#3A8FAF"/>
<path d="M67.2773 20.1167C67.7662 20.1167 68.1384 19.9167 68.3939 19.5167C68.6606 19.1056 68.7939 18.5444 68.7939 17.8333V12.5667C68.7939 10.4 68.2828 9.31667 67.2606 9.31667C66.7828 9.31667 66.4106 9.51111 66.1439 9.9C65.8773 10.2889 65.7439 10.8389 65.7439 11.55V16.9667C65.7439 19.0667 66.2551 20.1167 67.2773 20.1167ZM67.1439 22.1167C64.5995 22.1167 62.7384 21.5389 61.5606 20.3833C60.3828 19.2278 59.7939 17.3833 59.7939 14.85C59.7939 12.3389 60.3884 10.45 61.5773 9.18333C62.7662 7.90556 64.6995 7.26667 67.3773 7.26667C69.9884 7.26667 71.8717 7.87778 73.0273 9.1C74.1939 10.3111 74.7773 12.15 74.7773 14.6167C74.7773 17.1722 74.1606 19.0611 72.9273 20.2833C71.7051 21.5056 69.7773 22.1167 67.1439 22.1167Z" fill="#FAC847"/>
<path d="M81.9762 21.7667H76.5929V10.9833L75.5929 10.3667V8.48333L79.1762 7.6H80.5262L81.0096 11.5667C81.4651 8.84444 82.9262 7.48333 85.3929 7.48333C85.6707 7.48333 85.9596 7.53333 86.2596 7.63333L85.6929 13.5667C85.4596 13.3556 84.9485 13.25 84.1596 13.25C83.0262 13.25 82.2985 13.55 81.9762 14.15V21.7667Z" fill="#FAC847"/>
<path d="M87.5792 21.7667V10.9833L86.5792 10.3667V8.58333L90.1626 7.6H92.9459V21.7667H87.5792ZM89.9959 6.06667L87.2626 3.31667V2.73333L89.9959 0H90.6292L93.4792 2.73333V3.31667L90.6292 6.06667H89.9959Z" fill="#FAC847"/>
<path d="M101.045 21.7667H95.6286V10.5333H94.0119V8.31667L95.6952 7.6V6.15C95.6952 5.02778 95.8508 4.05556 96.1619 3.23333C96.473 2.41111 96.9064 1.77222 97.4619 1.31667C98.0286 0.861111 98.6508 0.533334 99.3286 0.333335C100.017 0.122223 100.784 0.0166669 101.629 0.0166669C102.384 0.0166669 103.095 0.116667 103.762 0.316668C104.429 0.516667 104.845 0.7 105.012 0.866668L104.379 3.4C103.845 3.13333 103.295 3 102.729 3C102.584 3 102.451 3.01111 102.329 3.03333C101.473 3.16667 101.045 3.89445 101.045 5.21667V7.6H103.195V10.5333H101.045V21.7667Z" fill="#FAC847"/>
<path d="M111.454 27.5C110.309 27.5 109.231 27.3333 108.22 27C107.209 26.6667 106.47 26.2167 106.004 25.65L106.87 23.85C107.515 24.2167 108.537 24.4 109.937 24.4C110.381 24.4 110.765 24.35 111.087 24.25C111.409 24.15 111.698 23.9722 111.954 23.7167C112.209 23.4722 112.404 23.1222 112.537 22.6667C112.67 22.2111 112.742 21.65 112.754 20.9833V19.55L112.587 19.8167C112.476 19.9944 112.304 20.2111 112.07 20.4667C111.848 20.7111 111.592 20.9611 111.304 21.2167C111.015 21.4611 110.659 21.6722 110.237 21.85C109.826 22.0278 109.404 22.1167 108.97 22.1167C107.315 22.1167 106.148 21.6556 105.47 20.7333C104.792 19.8 104.454 18.2333 104.454 16.0333V10.1167L103.854 9.51667V7.6H109.92V17.0833C109.92 17.5944 109.998 17.9722 110.154 18.2167C110.32 18.45 110.648 18.5667 111.137 18.5667C111.281 18.5667 111.426 18.5444 111.57 18.5C111.715 18.4444 111.854 18.3722 111.987 18.2833C112.131 18.1944 112.281 18.0833 112.437 17.95V10.1167L111.52 9.51667V7.6H117.87V19.8167C117.87 22.2722 117.348 24.1667 116.304 25.5C115.259 26.8333 113.642 27.5 111.454 27.5Z" fill="#FAC847"/>
</svg>
