<svg width="165" height="40" viewBox="0 0 165 40" fill="none" xmlns="http://www.w3.org/2000/svg">
<path d="M9.04749 31.49C7.84971 31.49 6.72971 31.3811 5.68749 31.1633C4.66082 30.9611 3.79749 30.6889 3.09749 30.3467C2.39749 30.0044 1.82193 29.6778 1.37082 29.3667C0.935265 29.0556 0.569709 28.7444 0.274154 28.4333L0.857487 22.7633C1.49526 23.6189 2.35082 24.3656 3.42415 25.0033C4.49749 25.6256 5.65638 25.9367 6.90082 25.9367C8.14526 25.9367 9.03971 25.8044 9.58415 25.54C10.1442 25.2756 10.4242 24.7933 10.4242 24.0933C10.4242 23.3467 10.1053 22.7089 9.46749 22.18C8.84527 21.6511 7.76415 21.0133 6.22415 20.2667C5.66415 19.9867 5.18971 19.7378 4.80082 19.52C4.41193 19.2867 3.89082 18.9133 3.23749 18.4C2.59971 17.8711 2.0786 17.3267 1.67415 16.7667C1.26971 16.1911 0.911931 15.46 0.60082 14.5733C0.289709 13.6711 0.134154 12.7067 0.134154 11.68C0.134154 6.12667 3.2686 3.35 9.53749 3.35C10.533 3.35 11.4664 3.45889 12.3375 3.67667C13.2242 3.87889 13.9164 4.10444 14.4142 4.35333C14.9119 4.60222 15.363 4.89778 15.7675 5.24C16.1875 5.56667 16.4519 5.8 16.5608 5.94C16.6697 6.06444 16.7475 6.16556 16.7942 6.24333L15.6275 10.7467C15.0208 10.0311 14.2586 9.50222 13.3408 9.16C12.4386 8.80222 11.5753 8.62333 10.7508 8.62333C8.75971 8.62333 7.76415 9.24556 7.76415 10.49C7.76415 10.8167 7.82638 11.1122 7.95082 11.3767C8.07526 11.6411 8.27749 11.8822 8.55749 12.1C8.83749 12.3178 9.09415 12.5044 9.32749 12.66C9.57638 12.8156 9.91082 13.01 10.3308 13.2433C10.7664 13.4611 11.093 13.64 11.3108 13.78C13.5819 14.7444 15.2464 15.8878 16.3042 17.21C17.3775 18.5322 17.9142 20.1422 17.9142 22.04C17.9142 25.12 17.1519 27.4689 15.6275 29.0867C14.1186 30.6889 11.9253 31.49 9.04749 31.49ZM32.5899 31C31.6877 31 30.8632 30.9067 30.1166 30.72C29.3699 30.5333 28.7166 30.3 28.1566 30.02V38.0467H20.6432V15.9033L19.2432 15.04V12.5433L24.2599 11.1667H28.1566V12.73C28.7166 12.1544 29.3932 11.6722 30.1866 11.2833C30.9799 10.8944 31.9055 10.7 32.9632 10.7C35.5299 10.7 37.4121 11.5789 38.6099 13.3367C39.8232 15.0944 40.4299 17.5289 40.4299 20.64C40.4299 22.1022 40.2666 23.4556 39.9399 24.7C39.6132 25.9289 39.131 27.0178 38.4932 27.9667C37.8555 28.9156 37.031 29.6622 36.0199 30.2067C35.0244 30.7356 33.881 31 32.5899 31ZM29.1599 27.7567C31.2444 27.7567 32.2866 26.1622 32.2866 22.9733V19.0067C32.2866 17.6067 32.0455 16.5644 31.5632 15.88C31.0966 15.1956 30.4899 14.8533 29.7432 14.8533C29.2299 14.8533 28.701 15.0089 28.1566 15.32V27.64C28.3432 27.6867 28.5144 27.7178 28.6699 27.7333C28.841 27.7489 29.0044 27.7567 29.1599 27.7567ZM53.6101 18.9367C53.6101 16.9611 53.509 15.5611 53.3068 14.7367C53.1046 13.9122 52.7313 13.5 52.1868 13.5C51.7201 13.5 51.339 13.5856 51.0435 13.7567C50.7479 13.9122 50.5301 14.1689 50.3901 14.5267C50.2501 14.8689 50.1568 15.2267 50.1101 15.6C50.079 15.9578 50.0635 16.4167 50.0635 16.9767V18.9367H53.6101ZM51.7435 31.49C50.0013 31.49 48.4846 31.2256 47.1935 30.6967C45.9179 30.1678 44.9068 29.4289 44.1601 28.48C43.429 27.5311 42.8924 26.4656 42.5501 25.2833C42.2079 24.0856 42.0368 22.7556 42.0368 21.2933C42.0368 17.8089 42.9235 15.1722 44.6968 13.3833C46.4701 11.5944 48.9513 10.7 52.1401 10.7C55.2046 10.7 57.3979 11.4233 58.7201 12.87C60.0424 14.3011 60.7035 16.6111 60.7035 19.8V22.39H50.0401V22.8333C50.0401 23.7511 50.1335 24.5056 50.3201 25.0967C50.5224 25.6878 50.8101 26.1233 51.1835 26.4033C51.5568 26.6833 51.9379 26.87 52.3268 26.9633C52.7157 27.0567 53.1901 27.1033 53.7501 27.1033C54.2946 27.1033 54.8779 27.0333 55.5001 26.8933C56.1379 26.7533 56.7757 26.5356 57.4135 26.24C58.0668 25.9444 58.6113 25.5944 59.0468 25.19L60.4235 27.5467C59.8479 28.48 59.0001 29.2656 57.8801 29.9033C56.7757 30.5256 55.7101 30.9456 54.6835 31.1633C53.6568 31.3811 52.6768 31.49 51.7435 31.49ZM62.9745 31V4.61L61.5745 3.77V1.6L69.0645 0.433333H70.5811V31H62.9745ZM73.4335 31V4.61L72.0335 3.77V1.6L79.5235 0.433333H81.0401V31H73.4335Z" fill="#4078E5"/>
<path d="M93.5291 28.69C94.2135 28.69 94.7347 28.41 95.0924 27.85C95.4658 27.2744 95.6524 26.4889 95.6524 25.4933V18.12C95.6524 15.0867 94.9369 13.57 93.5058 13.57C92.8369 13.57 92.3158 13.8422 91.9424 14.3867C91.5691 14.9311 91.3824 15.7011 91.3824 16.6967V24.28C91.3824 27.22 92.098 28.69 93.5291 28.69ZM93.3424 31.49C89.7802 31.49 87.1747 30.6811 85.5258 29.0633C83.8769 27.4456 83.0524 24.8633 83.0524 21.3167C83.0524 17.8011 83.8847 15.1567 85.5491 13.3833C87.2135 11.5944 89.9202 10.7 93.6691 10.7C97.3247 10.7 99.9613 11.5556 101.579 13.2667C103.212 14.9622 104.029 17.5367 104.029 20.99C104.029 24.5678 103.166 27.2122 101.439 28.9233C99.728 30.6344 97.0291 31.49 93.3424 31.49ZM114.108 31H106.571V15.9033L105.171 15.04V12.4033L110.188 11.1667H112.078L112.754 16.72C113.392 12.9089 115.438 11.0033 118.891 11.0033C119.28 11.0033 119.684 11.0733 120.104 11.2133L119.311 19.52C118.984 19.2244 118.269 19.0767 117.164 19.0767C115.578 19.0767 114.559 19.4967 114.108 20.3367V31ZM121.952 31V15.9033L120.552 15.04V12.5433L125.569 11.1667H129.465V31H121.952ZM125.335 9.02L121.509 5.17V4.35333L125.335 0.526666H126.222L130.212 4.35333V5.17L126.222 9.02H125.335ZM140.804 31H133.221V15.2733H130.958V12.17L133.314 11.1667V9.13667C133.314 7.56556 133.532 6.20445 133.968 5.05333C134.403 3.90222 135.01 3.00778 135.788 2.37C136.581 1.73222 137.452 1.27333 138.401 0.993334C139.365 0.697778 140.439 0.55 141.621 0.55C142.679 0.55 143.674 0.69 144.608 0.970001C145.541 1.25 146.124 1.50667 146.358 1.74L145.471 5.28667C144.724 4.91333 143.954 4.72667 143.161 4.72667C142.959 4.72667 142.772 4.74222 142.601 4.77333C141.403 4.96 140.804 5.97889 140.804 7.83V11.1667H143.814V15.2733H140.804V31ZM155.376 39.0267C153.774 39.0267 152.265 38.7933 150.849 38.3267C149.434 37.86 148.399 37.23 147.746 36.4367L148.959 33.9167C149.861 34.43 151.293 34.6867 153.253 34.6867C153.875 34.6867 154.411 34.6167 154.863 34.4767C155.314 34.3367 155.718 34.0878 156.076 33.73C156.434 33.3878 156.706 32.8978 156.893 32.26C157.079 31.6222 157.18 30.8367 157.196 29.9033V27.8967L156.963 28.27C156.807 28.5189 156.566 28.8222 156.239 29.18C155.928 29.5222 155.57 29.8722 155.166 30.23C154.761 30.5722 154.264 30.8678 153.673 31.1167C153.097 31.3656 152.506 31.49 151.899 31.49C149.581 31.49 147.948 30.8444 146.999 29.5533C146.05 28.2467 145.576 26.0533 145.576 22.9733V14.69L144.736 13.85V11.1667H153.229V24.4433C153.229 25.1589 153.338 25.6878 153.556 26.03C153.789 26.3567 154.248 26.52 154.933 26.52C155.135 26.52 155.337 26.4889 155.539 26.4267C155.741 26.3489 155.936 26.2478 156.123 26.1233C156.325 25.9989 156.535 25.8433 156.753 25.6567V14.69L155.469 13.85V11.1667H164.359V28.27C164.359 31.7078 163.628 34.36 162.166 36.2267C160.704 38.0933 158.44 39.0267 155.376 39.0267Z" fill="black"/>
</svg>
